<?xml version="1.0" encoding="utf-8"?>
<!-- Svg Vector Icons : http://www.onlinewebfonts.com/icon -->
<!DOCTYPE svg PUBLIC "-//W3C//DTD SVG 1.1//EN" "http://www.w3.org/Graphics/SVG/1.1/DTD/svg11.dtd">
<svg version="1.1" xmlns="http://www.w3.org/2000/svg" xmlns:xlink="http://www.w3.org/1999/xlink" x="0px" y="0px" viewBox="0 0 1000 1000" enable-background="new 0 0 1000 1000" xml:space="preserve">
<metadata> Svg Vector Icons : http://www.onlinewebfonts.com/icon </metadata>
<g><g><g><path d="M509.7,284.7c73.4,0,132.8-61.5,132.8-137.3C642.5,71.5,583.1,10,509.7,10c-73.4,0-133,61.5-133,137.4C376.7,223.2,436.3,284.7,509.7,284.7z"/><path d="M745.3,401.2c-6.6-20-44.2-80.8-146.5-81.3l-200.1,0.5c-99.2-5.5-138.8,53.1-145,79.1c0,0-67,214-55.5,263.5c7.1,30.8,60.5,68.4,117.3,96.4L239.9,990h533.8L700,751.3c50.8-26.9,95.3-60.4,101.7-88.3C813.4,612.8,745.3,401.2,745.3,401.2z M420.2,637c-9.3,4.1-19.6,6.5-30.3,6.5c-41.7,0-75.5-34.3-75.5-76.7c0-42.3,33.8-76.6,75.5-76.6c41,0,74.6,33.2,75.7,74.5c13-9.4,26.3-13.7,36.3-15.5c0,0.1,0,0.1,0,0.2c15-2.9,26.7,0,26.7,0c50.4,11.1,161.7,60.5,161.7,60.5s-59.7,74-168.2,73.5c-2.8,0-5.6-0.1-8.2-0.2h0c-10-0.2-18.9-0.9-27-1.9C435.5,675.4,420.8,656.2,420.2,637z"/></g></g><g></g><g></g><g></g><g></g><g></g><g></g><g></g><g></g><g></g><g></g><g></g><g></g><g></g><g></g><g></g></g>
</svg>